<?xml version="1.0" encoding="UTF-8" standalone="no"?>
<!-- Created with Inkscape (http://www.inkscape.org/) -->

<svg
   version="1.1"
   id="svg2"
   width="1693.3333"
   height="1693.3333"
   viewBox="0 0 1693.3333 1693.3333"
   sodipodi:docname="3207245_40784.eps"
   xmlns:inkscape="http://www.inkscape.org/namespaces/inkscape"
   xmlns:sodipodi="http://sodipodi.sourceforge.net/DTD/sodipodi-0.dtd"
   xmlns="http://www.w3.org/2000/svg"
   xmlns:svg="http://www.w3.org/2000/svg">
  <defs
     id="defs6" />
  <sodipodi:namedview
     id="namedview4"
     pagecolor="#ffffff"
     bordercolor="#000000"
     borderopacity="0.25"
     inkscape:showpageshadow="2"
     inkscape:pageopacity="0.0"
     inkscape:pagecheckerboard="0"
     inkscape:deskcolor="#d1d1d1" />
  <g
     id="g8"
     inkscape:groupmode="layer"
     inkscape:label="ink_ext_XXXXXX"
     transform="matrix(1.3333333,0,0,-1.3333333,0,1693.3333)">
    <g
       id="g10"
       transform="scale(0.1)">
      <path
         d="M 0,-10 H 12700 V 12690 H 0 Z"
         style="fill:#ffffff;fill-opacity:1;fill-rule:nonzero;stroke:none"
         id="path12" />
      <path
         d="M 10145,480 H 2865 c -233.75,0 -425,149.5 -425,332.199 v 132.903 c 0,81.898 38.42,156.998 101.75,214.998 H 2315 c -233.75,0 -425,149.5 -425,332.3 0,182.7 191.25,332.2 425,332.2 h 650.75 c -134.02,56.1 -225.75,166.6 -225.75,293.2 0,182.7 191.25,332.2 425,332.2 h 7390 c 233.7,0 425,-149.5 425,-332.2 0,-182.8 -191.3,-332.3 -425,-332.3 l -875,4.5 c 90.6,-20 127.17,-73 150,-140 35.21,-103.3 32.02,-228 -40,-310 -40.07,-45.6 -99.32,-68.8 -137.2,-70 l 492.2,7.4 c 233.7,0 425,-149.5 425,-332.298 V 812.199 C 10570,629.5 10378.7,480 10145,480"
         style="fill:#eeeeee;fill-opacity:1;fill-rule:nonzero;stroke:none"
         id="path14" />
      <path
         d="m 7255.97,1895.6 245.39,-157.3 85.15,-125 c 0,0 -87.26,-43.8 -136.3,-56 -49.05,-12.1 -437.9,29.4 -437.9,29.4 l -10.54,227.7 254.2,81.2"
         style="fill:#273140;fill-opacity:1;fill-rule:nonzero;stroke:none"
         id="path16" />
      <path
         d="m 6029.73,1723.9 121.27,-136 c 0,0 98.66,-184.3 49.19,-181.5 -49.47,2.8 -318.32,-11.6 -336.42,19.2 -18.09,30.8 -160.85,138.2 -179.51,159.2 -18.65,20.9 0.41,193.9 0.41,193.9 l 345.06,-54.8"
         style="fill:#273140;fill-opacity:1;fill-rule:nonzero;stroke:none"
         id="path18" />
      <path
         d="M 6723.18,5341.13 6418.45,3488.48 6029.73,1723.9 l -346.32,19.7 66.73,1862.48 c 0,0 -249.61,1711.77 -250.46,2218.09 l 1223.5,-483.04"
         style="fill:#2e4661;fill-opacity:1;fill-rule:nonzero;stroke:none"
         id="path20" />
      <path
         d="m 7487.69,5249.8 -139.41,-3419.4 -356.41,-16.5 -189.53,1737.42 -275.98,1533.17 736.57,948.63 224.76,-783.32"
         style="fill:#2e4661;fill-opacity:1;fill-rule:nonzero;stroke:none"
         id="path22" />
      <path
         d="m 7300.84,7050.15 c -186.87,909.37 50.41,1347.81 -358.6,1600.54 0,0 -666.31,183.08 -1090.76,-121.59 -5.88,-4.22 -11.71,-8.51 -17.53,-12.86 L 5679.69,8195.62 5562.64,6757.18 c 0,0 -327.45,-1888.46 -153.65,-1903.7 196.93,-17.28 1100.92,404.01 1272.59,394.06 171.67,-9.95 696.75,-104 1192.44,64.73 424.96,144.64 -386.31,828.51 -573.18,1737.88"
         style="fill:#677b91;fill-opacity:1;fill-rule:nonzero;stroke:none"
         id="path24" />
      <path
         d="m 6472.21,8678.71 -129.61,-4.85 -13.2,-130.45 476.18,-1331.63 106.7,577.04 -116.54,838.07 -323.53,51.82"
         style="fill:#ffffff;fill-opacity:1;fill-rule:nonzero;stroke:none"
         id="path26" />
      <path
         d="m 6892.74,7683.2 c -0.98,52.64 -3.46,99.77 -7.8,138.04 -29.94,264.3 -218.62,609.22 -218.62,609.22 0,0 -12.6,75.39 -15.47,141 l -156.84,25.43 10.07,-163.73 67.7,-70.76 c 0,0 164.47,-629.17 167.6,-881.49 0.32,-26.48 -0.07,-53.72 -0.99,-81.25 l 67.19,-187.88 87.16,471.42"
         style="fill:#2e4661;fill-opacity:1;fill-rule:nonzero;stroke:none"
         id="path28" />
      <path
         d="m 6863.61,6700.03 -183.52,-1449.88 386.95,-54.6 267.55,20.79 -338.43,1257.88 -132.55,225.81"
         style="fill:#ffffff;fill-opacity:1;fill-rule:nonzero;stroke:none"
         id="path30" />
      <path
         d="m 6647.85,8621 c -88.83,-3.66 -177.65,-7.32 -266.48,-10.97 -10.74,70.08 -15.88,141.02 -15.33,211.92 -76.64,15.39 -166.44,42.01 -189.91,116.57 -7.4,23.47 -6.71,48.64 -5.93,73.24 3.16,101.73 -25.39,204.85 9.51,305.19 11.56,33.25 2.42,71.43 16.96,103.49 25.5,56.26 85.93,87.81 144.72,106.77 150.03,48.36 322.31,38.65 455.73,-45.28 35.51,-22.33 68.75,-50.51 88.25,-87.66 30.06,-57.27 23.3,-126.07 15.76,-190.31 -6.96,-59.29 -13.91,-118.59 -20.87,-177.89 -8,-68.2 -22.41,-146.48 -82.3,-180.06 -31.8,-17.85 -72.06,-19.61 -99.8,-43.28 -48.91,-41.73 -30.42,-120.59 -50.31,-181.73"
         style="fill:#e7caad;fill-opacity:1;fill-rule:nonzero;stroke:none"
         id="path32" />
      <path
         d="m 7029.73,9942.78 c -19.95,1.84 -40.35,4.29 -61.4,11.41 -66.48,22.47 -116.16,74.61 -186.45,95.01 -142.2,41.4 -314.27,19 -444.71,-49.33 -124.84,-65.42 -299.73,-101.33 -409.39,-184.31 -45.79,-34.65 -79.35,-83.44 -103.53,-135.52 -83.77,-180.45 -52.24,-408.55 77.34,-559.5 29.07,-33.87 62.37,-63.87 96.91,-92.14 71.49,-58.52 157.37,-131.13 246.18,-144.04 -8.71,76.6 -112.13,307.44 -62.33,378.24 66.03,93.88 210.4,103.86 314.54,102.94 124.09,-1.1 222.09,47.02 345.39,51.28 62.8,2.16 134.58,-4.42 179.12,39.92 51.49,51.25 156.15,209.03 178.45,276.27 19.52,58.87 -2.64,127.46 -48.76,168.94 -39.8,35.8 -79.6,36.99 -121.36,40.83"
         style="fill:#3a3029;fill-opacity:1;fill-rule:nonzero;stroke:none"
         id="path34" />
      <path
         d="m 7865.16,7939.93 -807.18,731.32 -194.09,-163.65 668.12,-1115.86 301.58,-28.93 c 0,0 86.89,310.63 104.81,343.56 l -73.24,233.56"
         style="fill:#6d8299;fill-opacity:1;fill-rule:nonzero;stroke:none"
         id="path36" />
      <path
         d="m 4052.57,2516.4 c -152.12,47.8 -299.82,35.3 -438.93,-37.2 -139.14,-72.5 -233.96,-186.4 -281.83,-338.5 -47.93,-152.3 -35.42,-300 37.14,-439 72.52,-139.1 186.43,-233.9 338.56,-281.8 60.32,-19 119.95,-28.4 178.66,-28.4 89.21,0 176.28,21.8 260.29,65.6 139.13,72.5 233.94,186.4 281.82,338.5 47.82,152 35.33,299.7 -37.18,439 -72.65,139.1 -186.56,234 -338.53,281.8"
         style="fill:#96432b;fill-opacity:1;fill-rule:nonzero;stroke:none"
         id="path38" />
      <path
         d="m 4391.1,2234.6 c -72.65,139.1 -186.56,234 -338.53,281.8 -49.1,15.4 -97.72,24.5 -145.75,27.4 95.59,-53.3 170.58,-131.1 223.56,-232.5 72.5,-139.4 84.99,-287 37.17,-439 -47.88,-152.1 -142.69,-266 -281.82,-338.6 -84.02,-43.7 -171.08,-65.6 -260.29,-65.6 -10.97,0 -21.98,0.5 -33.02,1.1 35.55,-19.8 73.86,-36.3 115.09,-49.3 60.32,-19 119.95,-28.4 178.66,-28.4 89.21,0 176.28,21.8 260.29,65.6 139.13,72.5 233.94,186.4 281.82,338.5 47.82,152 35.33,299.7 -37.18,439"
         style="fill:#7f3524;fill-opacity:1;fill-rule:nonzero;stroke:none"
         id="path40" />
      <path
         d="m 7250.39,6264.95 c -237.39,414.61 -636.46,712.54 -1186.1,885.52 -549.5,172.91 -1049.8,158.16 -1487.01,-43.84 -380.07,-175.62 -658.63,-473.56 -827.95,-885.55 -28.54,-69.41 -26.64,-148.24 5.21,-216.24 31.83,-67.99 91.14,-119.91 162.73,-142.44 l 327.27,-102.98 c 130.6,-41.07 271.03,22.51 326.54,148.01 98.48,222.55 238.1,373.54 426.87,461.58 228.51,106.58 504.22,110.31 819.44,11.11 314.26,-98.9 535.11,-262.85 656.39,-487.28 120.71,-223.74 132.74,-493.41 35.78,-801.52 -133.64,-424.7 -345.34,-672.53 -629.17,-736.6 -298.9,-67.43 -718.71,-14.22 -1248.55,158.35 l -141.63,44.58 c -141.39,44.49 -292.57,-34.35 -337.05,-175.7 L 3765,3148.54 c -21.54,-68.48 -15.14,-141.25 18.06,-204.92 33.18,-63.66 89.16,-110.58 157.64,-132.14 l 331.97,-104.47 c 26.75,-8.41 53.84,-12.41 80.51,-12.41 114.25,0 220.48,73.51 256.54,188.1 l 251.37,798.77 c 3.11,9.91 13.73,15.63 23.58,12.83 623.8,-178.12 1142.24,-190.31 1540.94,-36.21 424.01,163.87 730.88,538.88 912.06,1114.6 180.46,573.45 151.1,1075.51 -87.28,1492.26"
         style="fill:#96432b;fill-opacity:1;fill-rule:nonzero;stroke:none"
         id="path42" />
      <path
         d="m 7250.39,6264.95 c -237.39,414.61 -636.46,712.54 -1186.1,885.52 -340.24,107.06 -661.59,142.1 -960.8,105.36 157.02,-17.95 318.91,-52.99 485.35,-105.36 549.65,-172.98 948.71,-470.91 1186.11,-885.52 238.38,-416.75 267.74,-918.81 87.28,-1492.26 -181.19,-575.72 -488.05,-950.73 -912.07,-1114.6 -122.46,-47.34 -256.26,-78.91 -400.9,-94.88 335.85,-32.22 629.14,-0.67 876.35,94.88 424.01,163.87 730.88,538.88 912.06,1114.6 180.46,573.45 151.1,1075.51 -87.28,1492.26"
         style="fill:#7f3524;fill-opacity:1;fill-rule:nonzero;stroke:none"
         id="path44" />
      <path
         d="m 5992.96,8610.03 -382.51,-117.89 -915.14,-1559.9 62.39,-301.59 1185.53,-592.76 166.39,322.38 -748.76,571.97 457.58,623.95 176.78,998.34 -2.26,55.5"
         style="fill:#6d8299;fill-opacity:1;fill-rule:nonzero;stroke:none"
         id="path46" />
      <path
         d="m 7042.17,8657.91 -194.2,208.6 -187.19,-52 -52,-187.19 166.4,-31.19 156.28,-31.56 110.71,93.34"
         style="fill:#d6bba0;fill-opacity:1;fill-rule:nonzero;stroke:none"
         id="path48" />
      <path
         d="M 6093.2,6328.46 6280,6290 6250,6180 6411.79,5990.67 6190,5910 l -217.23,185.13 120.43,233.33"
         style="fill:#e7caad;fill-opacity:1;fill-rule:nonzero;stroke:none"
         id="path50" />
      <path
         d="m 8581.84,10276 -2.36,-2.5 -0.6,0.8 c 0.98,0.6 1.98,1.1 2.96,1.7 z m -632.14,30.3 c -60.2,-70.1 -96.53,-161.3 -96.16,-260.9 0.82,-220 179.82,-397.68 399.82,-396.86 68.26,0.25 132.43,17.68 188.47,48.15 73.92,-235.1 294,-405.21 553.38,-404.25 208.32,0.77 390.42,111.73 491.46,277.42 129.09,-157.46 325.3,-257.7 544.83,-256.88 387,1.43 699.6,316.37 698.2,703.42 -0.2,50.6 -5.9,99.8 -16.2,147.3 237.9,72.3 410.7,293.6 409.7,555 -1.2,319.1 -260.8,576.8 -579.9,575.6 -41.6,-0.1 -82.1,-4.8 -121.1,-13.3 0.1,4.3 0.3,8.6 0.3,12.9 -0.8,220 -179.9,397.7 -399.9,396.8 -113.37,-0.4 -215.45,-48.2 -287.71,-124.6 -121.15,212.2 -349.72,354.9 -611.44,353.9 -347.36,-1.3 -634.6,-255.1 -688.86,-586.9 -47.22,12.2 -96.75,18.8 -147.85,18.6 -319.08,-1.2 -576.8,-260.9 -575.62,-579.9 0.72,-191.6 94.64,-361 238.58,-465.5"
         style="fill:#c5cccc;fill-opacity:1;fill-rule:nonzero;stroke:none"
         id="path52" />
      <path
         d="m 8357.56,9133.37 c 21.35,-133.13 -69.26,-258.35 -202.38,-279.7 -54.61,-8.76 -107.87,1.35 -153.19,25.47 -19.87,-69.14 -78.02,-124.16 -153.74,-136.31 -104.41,-16.74 -202.62,54.33 -219.36,158.73 -2.46,15.34 -2.98,30.55 -1.82,45.39 -91.54,-9.06 -175.44,54.65 -190.2,146.69 -15.34,95.61 49.74,185.54 145.34,200.87 19.67,3.16 39.09,2.85 57.68,-0.36 19.02,97.68 97.06,177.72 201.04,194.39 114.76,18.41 223.6,-46.44 265.13,-149.97 122.18,5.39 231.67,-81.53 251.5,-205.2"
         style="fill:#c5cccc;fill-opacity:1;fill-rule:nonzero;stroke:none"
         id="path54" />
    </g>
  </g>
</svg>
